<svg width="16" height="16" fill="none" xmlns="http://www.w3.org/2000/svg"><path d="M6 8H3.067c-.374 0-.56 0-.703.073a.667.667 0 00-.291.291C2 8.507 2 8.694 2 9.067v3.866c0 .374 0 .56.073.703a.667.667 0 00.291.291c.143.073.33.073.703.073H6m0 0h4m-4 0V5.733c0-.373 0-.56.073-.702a.667.667 0 01.291-.292c.143-.072.33-.072.703-.072h1.866c.374 0 .56 0 .703.072a.667.667 0 01.291.292c.073.142.073.329.073.702V14m0 0h2.933c.374 0 .56 0 .703-.073a.667.667 0 00.291-.291c.073-.143.073-.33.073-.703V3.067c0-.374 0-.56-.073-.703a.667.667 0 00-.291-.291C13.493 2 13.306 2 12.933 2h-1.866c-.374 0-.56 0-.703.073a.667.667 0 00-.291.291c-.073.143-.073.33-.073.703v2.266" stroke="#0D0D0D" stroke-width="1.5" stroke-linecap="round" stroke-linejoin="round"/></svg>