<svg width="24" height="24" fill="none" xmlns="http://www.w3.org/2000/svg"><path fill-rule="evenodd" clip-rule="evenodd" d="M7.759 2h8.482c.805 0 1.47 0 2.01.044.563.046 1.08.145 1.565.392a4 4 0 011.748 1.748c.247.485.346 1.002.392 1.564C22 6.29 22 6.954 22 7.758v8.483c0 .805 0 1.47-.044 2.01-.046.563-.145 1.08-.392 1.565a4 4 0 01-1.748 1.748c-.485.247-1.002.346-1.564.392-.541.044-1.206.044-2.01.044H7.758c-.805 0-1.47 0-2.01-.044-.563-.046-1.08-.145-1.565-.392a4 4 0 01-1.748-1.748c-.247-.485-.346-1.002-.392-1.564C2 17.71 2 17.046 2 16.242V7.758c0-.805 0-1.47.044-2.01.046-.563.145-1.08.392-1.565a4 4 0 011.748-1.748c.485-.247 1.002-.346 1.564-.392C6.29 2 6.954 2 7.758 2zm9.448 6.293a1 1 0 010 1.414l-6 6a1 1 0 01-1.414 0l-3-3a1 1 0 111.414-1.414l2.293 2.293 5.293-5.293a1 1 0 011.414 0z" fill="#63A1F7"/></svg>