<svg width="16" height="16" fill="none" xmlns="http://www.w3.org/2000/svg"><path d="M13.667 4.852L8 8m0 0L2.333 4.852M8 8v6.333m6-3.627V5.294c0-.228 0-.342-.034-.444a.666.666 0 00-.142-.243c-.073-.079-.173-.134-.373-.245L8.518 1.62c-.189-.105-.284-.158-.384-.178a.666.666 0 00-.268 0c-.1.02-.195.073-.384.178L2.549 4.36c-.2.112-.3.167-.373.246a.667.667 0 00-.142.243C2 4.952 2 5.066 2 5.294v5.412c0 .228 0 .342.034.444.03.09.078.173.142.243.073.079.173.134.373.245l4.933 2.74c.189.106.284.158.384.179.088.018.18.018.268 0 .1-.02.195-.073.384-.178l4.933-2.741c.2-.11.3-.166.373-.245a.666.666 0 00.142-.243c.034-.102.034-.216.034-.444z" stroke="#0D0D0D" stroke-width="1.5" stroke-linecap="round" stroke-linejoin="round"/></svg>