<svg width="16" height="16" fill="none" xmlns="http://www.w3.org/2000/svg"><g clip-path="url(#clip0_741_23106)"><path d="M7.332 2.667h-2.8c-1.12 0-1.68 0-2.108.218a2 2 0 00-.874.874c-.218.427-.218.988-.218 2.108v5.6c0 1.12 0 1.68.218 2.108a2 2 0 00.874.874c.428.218.988.218 2.108.218h5.6c1.12 0 1.68 0 2.108-.218a2 2 0 00.874-.874c.218-.428.218-.988.218-2.108v-2.8m-8 2h1.116c.326 0 .49 0 .643-.037.136-.033.266-.087.385-.16.135-.082.25-.198.48-.428l6.376-6.375a1.414 1.414 0 10-2-2L5.957 8.042c-.23.23-.346.346-.429.48-.073.12-.126.25-.16.386-.036.153-.036.316-.036.642v1.117z" stroke="#0D0D0D" stroke-width="1.5" stroke-linecap="round" stroke-linejoin="round"/></g><defs><clipPath id="clip0_741_23106"><path fill="#fff" d="M0 0h16v16H0z"/></clipPath></defs></svg>