<svg width="16" height="16" fill="none" xmlns="http://www.w3.org/2000/svg"><path d="M9.335 7.333h-4M6.668 10H5.335m5.333-5.333H5.335m8-.134v6.934c0 1.12 0 1.68-.218 2.108a2 2 0 01-.874.874c-.428.218-.988.218-2.108.218H5.868c-1.12 0-1.68 0-2.108-.218a2 2 0 01-.874-.874c-.218-.428-.218-.988-.218-2.108V4.533c0-1.12 0-1.68.218-2.108a2 2 0 01.874-.874c.428-.218.988-.218 2.108-.218h4.267c1.12 0 1.68 0 2.108.218a2 2 0 01.874.874c.218.428.218.988.218 2.108z" stroke="#0D0D0D" stroke-width="1.5" stroke-linecap="round" stroke-linejoin="round"/></svg>