<svg width="24" height="24" fill="none" xmlns="http://www.w3.org/2000/svg"><path d="M11.706 3.036a8.5 8.5 0 00-7.264 11.18c.108.322.162.482.172.605a.899.899 0 01-.028.326c-.03.12-.098.245-.232.494l-1.636 3.027c-.233.432-.35.648-.324.815a.5.5 0 00.234.35c.144.087.388.062.876.011l5.121-.529a2.25 2.25 0 01.304-.021.903.903 0 01.186.024c.069.016.155.05.329.116a8.501 8.501 0 0011.52-7.153M20.12 3.88a3 3 0 11-4.243 4.242A3 3 0 0120.12 3.88z" stroke="#0D0D0D" stroke-width="2" stroke-linecap="round" stroke-linejoin="round"/></svg>