<svg width="16" height="16" fill="none" xmlns="http://www.w3.org/2000/svg"><path d="M7.804 2.024a5.667 5.667 0 00-4.843 7.454c.072.214.109.32.115.403a.6.6 0 01-.018.217c-.02.08-.066.163-.156.33l-1.09 2.018c-.155.287-.233.431-.216.543a.333.333 0 00.156.232c.096.06.259.042.584.009l3.414-.353c.103-.011.155-.016.202-.015.047.002.08.007.125.017.046.01.103.033.219.077a5.667 5.667 0 007.68-4.768m-.563-5.602a2 2 0 11-2.828 2.828 2 2 0 012.828-2.828z" stroke="#0D0D0D" stroke-width="1.5" stroke-linecap="round" stroke-linejoin="round"/></svg>