<svg width="16" height="16" fill="none" xmlns="http://www.w3.org/2000/svg"><path d="M3.999 7.333V10m8-4v2.667m-.667-6c1.632 0 2.515.25 2.955.443a.473.473 0 01.172.12c.05.048.143.19.167.255.04.11.04.17.04.29v7.166c0 .606 0 .909-.091 1.064a.58.58 0 01-.355.293c-.17.06-.513-.006-1.2-.138a8.962 8.962 0 00-1.688-.16c-2 0-4 1.333-6.667 1.333-1.632 0-2.515-.25-2.954-.443a.472.472 0 01-.173-.12.976.976 0 01-.166-.255c-.04-.11-.04-.17-.04-.29V5.059c0-.606 0-.908.09-1.064a.581.581 0 01.355-.293c.17-.06.514.006 1.2.138.48.092 1.05.16 1.688.16 2 0 4-1.333 6.667-1.333zM9.665 8a1.667 1.667 0 11-3.333 0 1.667 1.667 0 013.333 0z" stroke="#0D0D0D" stroke-width="1.5" stroke-linecap="round" stroke-linejoin="round"/></svg>