<svg width="16" height="16" fill="none" xmlns="http://www.w3.org/2000/svg"><g clip-path="url(#clip0_741_22889)"><path d="M9.365 4a3.333 3.333 0 012.633 2.633m-2.633-5.3a6 6 0 015.3 5.294M6.816 9.242A9.735 9.735 0 014.92 6.569a1.133 1.133 0 01-.075-.178.697.697 0 01.098-.574c.032-.045.07-.083.146-.16.233-.232.35-.349.426-.466a1.333 1.333 0 000-1.453c-.077-.118-.193-.234-.426-.467l-.13-.13c-.354-.354-.531-.532-.722-.628a1.333 1.333 0 00-1.203 0c-.19.096-.368.274-.722.628l-.105.105c-.353.353-.53.53-.665.77-.15.266-.257.68-.256.985.001.275.054.463.161.84a12.692 12.692 0 003.25 5.522 12.691 12.691 0 005.522 3.25c.376.106.564.16.84.16.305.001.719-.106.985-.256.24-.135.416-.311.77-.665l.105-.105c.354-.354.531-.531.627-.721a1.334 1.334 0 000-1.204c-.096-.19-.273-.367-.627-.721l-.13-.13c-.233-.233-.35-.35-.467-.426a1.333 1.333 0 00-1.454 0c-.117.076-.233.193-.467.425a1.346 1.346 0 01-.158.147.697.697 0 01-.575.098 1.12 1.12 0 01-.177-.075 9.735 9.735 0 01-2.674-1.898z" stroke="#0D0D0D" stroke-width="1.5" stroke-linecap="round" stroke-linejoin="round"/></g><defs><clipPath id="clip0_741_22889"><path fill="#fff" d="M0 0h16v16H0z"/></clipPath></defs></svg>