<svg width="16" height="16" fill="none" xmlns="http://www.w3.org/2000/svg"><g clip-path="url(#clip0_738_25323)"><path d="M4.999 3a1.667 1.667 0 113.333 0v1h.667c.932 0 1.397 0 1.765.152a2 2 0 011.083 1.083c.152.367.152.833.152 1.765h1a1.667 1.667 0 110 3.333h-1v1.134c0 1.12 0 1.68-.218 2.108a2 2 0 01-.874.874c-.428.218-.988.218-2.108.218h-.467V13.5a1.5 1.5 0 00-3 0v1.167h-.8c-1.12 0-1.68 0-2.108-.218a2 2 0 01-.874-.874c-.218-.428-.218-.988-.218-2.108v-1.134h1a1.667 1.667 0 000-3.333h-1c0-.932 0-1.398.152-1.765a2 2 0 011.083-1.083C2.934 4 3.4 4 4.332 4h.667V3z" stroke="#0D0D0D" stroke-width="1.5" stroke-linecap="round" stroke-linejoin="round"/></g><defs><clipPath id="clip0_738_25323"><path fill="#fff" d="M0 0h16v16H0z"/></clipPath></defs></svg>