<svg width="16" height="16" fill="none" xmlns="http://www.w3.org/2000/svg"><g clip-path="url(#clip0_741_23080)"><path d="M5.999 6h.006M10 10h.006m.66-4.667l-5.333 5.334m6.6-7.335c.138.332.402.596.733.734l1.164.482a1.355 1.355 0 01.733 1.77l-.481 1.163a1.354 1.354 0 000 1.038l.48 1.162a1.354 1.354 0 01-.733 1.771l-1.162.482c-.332.137-.596.4-.734.732l-.482 1.164a1.355 1.355 0 01-1.77.733l-1.163-.481a1.355 1.355 0 00-1.037 0l-1.163.482a1.355 1.355 0 01-1.77-.733l-.482-1.164a1.355 1.355 0 00-.732-.734l-1.164-.482a1.355 1.355 0 01-.734-1.77l.482-1.162a1.355 1.355 0 000-1.037l-.482-1.164a1.355 1.355 0 01.734-1.771l1.163-.482c.331-.137.595-.4.733-.732l.482-1.163a1.355 1.355 0 011.77-.734l1.163.482a1.36 1.36 0 001.037 0l1.164-.48a1.355 1.355 0 011.77.732l.482 1.164v-.002zM6.333 6a.333.333 0 11-.667 0 .333.333 0 01.667 0zm4 4a.333.333 0 11-.667 0 .333.333 0 01.667 0z" stroke="#0D0D0D" stroke-width="1.5" stroke-linecap="round" stroke-linejoin="round"/></g><defs><clipPath id="clip0_741_23080"><path fill="#fff" d="M0 0h16v16H0z"/></clipPath></defs></svg>