<svg xmlns="http://www.w3.org/2000/svg">
    <defs>
        <symbol id="phone">
            <path d="M14.05 6A5 5 0 0118 9.95M14.05 2A9 9 0 0122 9.94m-11.773 3.923a14.604 14.604 0 01-2.847-4.01 1.698 1.698 0 01-.113-.266 1.046 1.046 0 01.147-.862c.048-.067.105-.124.22-.238.35-.35.524-.524.638-.7a2 2 0 000-2.18c-.114-.176-.289-.351-.638-.7l-.195-.196c-.532-.531-.797-.797-1.083-.941a2 2 0 00-1.805 0c-.285.144-.551.41-1.083.941l-.157.158c-.53.53-.795.794-.997 1.154-.224.4-.386 1.02-.384 1.479 0 .413.081.695.241 1.26a19.038 19.038 0 004.874 8.283 19.039 19.039 0 008.283 4.873c.565.16.847.24 1.26.242a3.377 3.377 0 001.478-.384c.36-.203.625-.468 1.155-.997l.157-.158c.532-.531.797-.797.942-1.082a2 2 0 000-1.806c-.145-.285-.41-.55-.942-1.082l-.195-.195c-.35-.35-.524-.524-.7-.639a2 2 0 00-2.18 0c-.176.114-.35.29-.7.639-.115.114-.172.171-.239.22-.237.17-.581.228-.862.146a1.695 1.695 0 01-.266-.113 14.605 14.605 0 01-4.01-2.846z"
                  stroke-width="2" stroke-linecap="round" stroke-linejoin="round"/>
        </symbol>
        <symbol id="info">
            <path d="M12 16v-4m0-4h.01M22 12c0 5.523-4.477 10-10 10S2 17.523 2 12 6.477 2 12 2s10 4.477 10 10z"
                  stroke-width="2" stroke-linecap="round" stroke-linejoin="round"/>
        </symbol>
        <symbol id="chevron">
            <path fill-rule="evenodd" clip-rule="evenodd"
                  d="M8.293 10.293a1 1 0 011.414 0L12 12.586l2.293-2.293a1 1 0 111.414 1.414l-3 3a1 1 0 01-1.414 0l-3-3a1 1 0 010-1.414z"/>
        </symbol>
        <symbol id="users-mini">
            <path d="M10.665 2.312a3 3 0 010 5.376M12 11.178c1.007.456 1.915 1.199 2.666 2.155m-13.333 0c1.298-1.651 3.06-2.666 5-2.666s3.702 1.015 5 2.666M9.332 5a3 3 0 11-6 0 3 3 0 016 0z"
                  stroke-width="1.5" stroke-linecap="round" stroke-linejoin="round"/>
        </symbol>
        <symbol id="lock-mini">
            <path d="M11.335 6.667V5.333a3.333 3.333 0 10-6.667 0v1.334m3.333 3V11m-2.133 3h4.267c1.12 0 1.68 0 2.108-.218a2 2 0 00.874-.874c.218-.428.218-.988.218-2.108v-.933c0-1.12 0-1.68-.218-2.108a2 2 0 00-.874-.874c-.428-.218-.988-.218-2.108-.218H5.868c-1.12 0-1.68 0-2.108.218a2 2 0 00-.874.874c-.218.428-.218.988-.218 2.108v.933c0 1.12 0 1.68.218 2.108a2 2 0 00.874.874c.428.218.988.218 2.108.218z"
                  stroke-width="1.5" stroke-linecap="round" stroke-linejoin="round"/>
        </symbol>
        <symbol id="info-mini">
            <g clip-path="url(#clip0_741_23215)">
                <path d="M7.999 10.667V8m0-2.667h.006M14.665 8A6.667 6.667 0 111.332 8a6.667 6.667 0 0113.333 0z"
                      stroke-width="1.5" stroke-linecap="round" stroke-linejoin="round"/>
            </g>
            <defs>
                <clipPath id="clip0_741_23215">
                    <path fill="#fff" d="M0 0h16v16H0z"/>
                </clipPath>
            </defs>
        </symbol>
        <symbol id="lead">
            <path d="M12 15.5H7.5c-1.396 0-2.093 0-2.661.172a4 4 0 00-2.667 2.667C2 18.907 2 19.604 2 21m17 0v-6m-3 3h6M14.5 7.5a4.5 4.5 0 11-9 0 4.5 4.5 0 019 0z"
                  stroke-width="2" stroke-linecap="round" stroke-linejoin="round"/>
        </symbol>
        <symbol id="settings-mini">
            <path d="M6.265 12.914l.39.876a1.475 1.475 0 002.696 0l.39-.876a1.617 1.617 0 011.646-.949l.953.102a1.475 1.475 0 001.348-2.335l-.564-.776A1.618 1.618 0 0112.817 8c0-.342.109-.676.31-.953l.564-.775a1.474 1.474 0 00-1.348-2.335l-.953.101a1.617 1.617 0 01-1.647-.953l-.392-.875a1.475 1.475 0 00-2.697 0l-.39.876a1.617 1.617 0 01-1.646.952l-.956-.101a1.475 1.475 0 00-1.348 2.335l.564.775a1.62 1.62 0 010 1.906l-.564.775a1.474 1.474 0 001.348 2.335l.953-.102a1.622 1.622 0 011.65.953z"
                  stroke-width="1.5" stroke-linecap="round" stroke-linejoin="round"/>
            <path d="M8.001 10a2 2 0 100-4 2 2 0 000 4z" stroke-width="1.5" stroke-linecap="round"
                  stroke-linejoin="round"/>
        </symbol>
        <symbol id="money-mini">
            <path d="M3.999 7.333V10m8-4v2.667m-.667-6c1.632 0 2.515.25 2.955.443a.473.473 0 01.172.12c.05.048.143.19.167.255.04.11.04.17.04.29v7.166c0 .606 0 .909-.091 1.064a.58.58 0 01-.355.293c-.17.06-.513-.006-1.2-.138a8.962 8.962 0 00-1.688-.16c-2 0-4 1.333-6.667 1.333-1.632 0-2.515-.25-2.954-.443a.472.472 0 01-.173-.12.976.976 0 01-.166-.255c-.04-.11-.04-.17-.04-.29V5.059c0-.606 0-.908.09-1.064a.581.581 0 01.355-.293c.17-.06.514.006 1.2.138.48.092 1.05.16 1.688.16 2 0 4-1.333 6.667-1.333zM9.665 8a1.667 1.667 0 11-3.333 0 1.667 1.667 0 013.333 0z"
                  stroke-width="1.5" stroke-linecap="round" stroke-linejoin="round"/>
        </symbol>
        <symbol id="sale-mini">
            <path d="M14 6.667H2m8.667-5.334V4M5.333 1.333V4M5.2 14.667h5.6c1.12 0 1.68 0 2.108-.218a2 2 0 00.874-.874c.218-.428.218-.988.218-2.108v-5.6c0-1.12 0-1.68-.218-2.108a2 2 0 00-.874-.874c-.428-.218-.988-.218-2.108-.218H5.2c-1.12 0-1.68 0-2.108.218a2 2 0 00-.874.874C2 4.186 2 4.746 2 5.867v5.6c0 1.12 0 1.68.218 2.108a2 2 0 00.874.874c.428.218.988.218 2.108.218z"
                  stroke-width="1.5" stroke-linecap="round" stroke-linejoin="round"/>
        </symbol>
        <symbol id="file-check-mini">
            <path d="M13.335 8.333v-3.8c0-1.12 0-1.68-.218-2.108a2 2 0 00-.874-.874c-.428-.218-.988-.218-2.108-.218H5.868c-1.12 0-1.68 0-2.108.218a2 2 0 00-.874.874c-.218.428-.218.988-.218 2.108v6.934c0 1.12 0 1.68.218 2.108a2 2 0 00.874.874c.428.218.988.218 2.108.218h2.133m1.334-7.334h-4M6.668 10H5.335m5.333-5.333H5.335m4.333 8L11.001 14l3-3"
                  stroke-width="1.5" stroke-linecap="round" stroke-linejoin="round"/>
        </symbol>
        <symbol id="package-x-mini">
            <path d="M13.667 4.852L8 8m0 0L2.333 4.852M8 8v6.333m6-6V5.294c0-.228 0-.342-.034-.444a.666.666 0 00-.142-.243c-.073-.079-.173-.134-.373-.245l-4.933-2.74c-.189-.106-.284-.158-.384-.179a.667.667 0 00-.268 0c-.1.02-.195.073-.384.178l-4.933 2.74c-.2.112-.3.167-.373.246a.667.667 0 00-.142.243C2 4.952 2 5.066 2 5.294v5.412c0 .228 0 .342.034.444.03.09.078.173.142.243.073.079.173.134.373.245l4.933 2.74c.189.106.284.159.384.179.088.018.18.018.268 0 .1-.02.195-.073.384-.178l.149-.083M5 3l6 3.333m0 4.334L14.333 14m0-3.333L11 14"
                  stroke-width="1.5" stroke-linecap="round" stroke-linejoin="round"/>
        </symbol>
        <symbol id="file-1-mini">
            <path d="M9.335 7.333h-4M6.668 10H5.335m5.333-5.333H5.335m8-.134v6.934c0 1.12 0 1.68-.218 2.108a2 2 0 01-.874.874c-.428.218-.988.218-2.108.218H5.868c-1.12 0-1.68 0-2.108-.218a2 2 0 01-.874-.874c-.218-.428-.218-.988-.218-2.108V4.533c0-1.12 0-1.68.218-2.108a2 2 0 01.874-.874c.428-.218.988-.218 2.108-.218h4.267c1.12 0 1.68 0 2.108.218a2 2 0 01.874.874c.218.428.218.988.218 2.108z"
                  stroke-width="1.5" stroke-linecap="round" stroke-linejoin="round"/>
        </symbol>
        <symbol id="package-mini">
            <path d="M13.667 4.852L8 8m0 0L2.333 4.852M8 8v6.333m6-3.627V5.294c0-.228 0-.342-.034-.444a.666.666 0 00-.142-.243c-.073-.079-.173-.134-.373-.245L8.518 1.62c-.189-.105-.284-.158-.384-.178a.666.666 0 00-.268 0c-.1.02-.195.073-.384.178L2.549 4.36c-.2.112-.3.167-.373.246a.667.667 0 00-.142.243C2 4.952 2 5.066 2 5.294v5.412c0 .228 0 .342.034.444.03.09.078.173.142.243.073.079.173.134.373.245l4.933 2.74c.189.106.284.158.384.179.088.018.18.018.268 0 .1-.02.195-.073.384-.178l4.933-2.741c.2-.11.3-.166.373-.245a.666.666 0 00.142-.243c.034-.102.034-.216.034-.444zm-3-4.373L5 3"
                  stroke-width="1.5" stroke-linecap="round" stroke-linejoin="round"/>
        </symbol>
        <symbol id="message-mini">
            <path d="M7.804 2.024a5.667 5.667 0 00-4.843 7.454c.072.214.109.32.115.403a.6.6 0 01-.018.217c-.02.08-.066.163-.156.33l-1.09 2.018c-.155.287-.233.431-.216.543a.333.333 0 00.156.232c.096.06.259.042.584.009l3.414-.353c.103-.011.155-.016.202-.015.047.002.08.007.125.017.046.01.103.033.219.077a5.667 5.667 0 007.68-4.768m-.563-5.602a2 2 0 11-2.828 2.828 2 2 0 012.828-2.828z"
                  stroke-width="1.5" stroke-linecap="round" stroke-linejoin="round"/>
        </symbol>
        <symbol id="edit-mini">
            <g clip-path="url(#clip0_741_23106)">
                <path d="M7.332 2.667h-2.8c-1.12 0-1.68 0-2.108.218a2 2 0 00-.874.874c-.218.427-.218.988-.218 2.108v5.6c0 1.12 0 1.68.218 2.108a2 2 0 00.874.874c.428.218.988.218 2.108.218h5.6c1.12 0 1.68 0 2.108-.218a2 2 0 00.874-.874c.218-.428.218-.988.218-2.108v-2.8m-8 2h1.116c.326 0 .49 0 .643-.037.136-.033.266-.087.385-.16.135-.082.25-.198.48-.428l6.376-6.375a1.414 1.414 0 10-2-2L5.957 8.042c-.23.23-.346.346-.429.48-.073.12-.126.25-.16.386-.036.153-.036.316-.036.642v1.117z"
                      stroke-width="1.5" stroke-linecap="round" stroke-linejoin="round"/>
            </g>
            <defs>
                <clipPath id="clip0_741_23106">
                    <path fill="#fff" d="M0 0h16v16H0z"/>
                </clipPath>
            </defs>
        </symbol>
        <symbol id="lead-mini">
            <path d="M7.999 10.333h-3c-.93 0-1.396 0-1.774.115a2.666 2.666 0 00-1.778 1.778c-.115.378-.115.844-.115 1.774m11.333 0v-4m-2 2h4m-5-7a3 3 0 11-6 0 3 3 0 016 0z"
                  stroke-width="1.5" stroke-linecap="round" stroke-linejoin="round"/>
        </symbol>
        <symbol id="cart">
            <path d="M2 2h1.306c.246 0 .37 0 .468.045a.5.5 0 01.213.185c.059.092.076.213.111.457L4.571 6m0 0l1.052 7.731c.134.982.2 1.472.435 1.841a2 2 0 00.853.745c.398.183.893.183 1.883.183h8.558c.942 0 1.414 0 1.799-.17a2 2 0 00.841-.696c.239-.346.327-.81.503-1.735l1.324-6.95c.062-.325.093-.488.048-.615a.5.5 0 00-.22-.266C21.532 6 21.366 6 21.034 6H4.571zM10 21a1 1 0 11-2 0 1 1 0 012 0zm8 0a1 1 0 11-2 0 1 1 0 012 0z"
                  stroke-width="2" stroke-linecap="round" stroke-linejoin="round"/>
        </symbol>
        <symbol id="edit">
            <path d="M11 4H6.8c-1.68 0-2.52 0-3.162.327a3 3 0 00-1.311 1.311C2 6.28 2 7.12 2 8.8v8.4c0 1.68 0 2.52.327 3.162a3 3 0 001.311 1.311C4.28 22 5.12 22 6.8 22h8.4c1.68 0 2.52 0 3.162-.327a3 3 0 001.311-1.311C20 19.72 20 18.88 20 17.2V13M8 16h1.675c.489 0 .733 0 .963-.055.204-.05.4-.13.579-.24.201-.123.374-.296.72-.642L21.5 5.5a2.121 2.121 0 00-3-3l-9.563 9.563c-.346.346-.519.519-.642.72a2 2 0 00-.24.579c-.055.23-.055.474-.055.963V16z"
                  stroke-width="2" stroke-linecap="round" stroke-linejoin="round"/>
        </symbol>
        <symbol id="geo-mini">
            <path d="M8.001 8.667a2 2 0 100-4 2 2 0 000 4z" stroke-width="1.5" stroke-linecap="round"
                  stroke-linejoin="round"/>
            <path d="M8.001 14.667c2.667-2.667 5.334-5.055 5.334-8a5.333 5.333 0 10-10.667 0c0 2.945 2.667 5.333 5.333 8z"
                  stroke-width="1.5" stroke-linecap="round" stroke-linejoin="round"/>
        </symbol>
        <symbol id="phone-mini">
            <g clip-path="url(#clip0_741_22889)">
                <path d="M9.365 4a3.333 3.333 0 012.633 2.633m-2.633-5.3a6 6 0 015.3 5.294M6.816 9.242A9.735 9.735 0 014.92 6.569a1.133 1.133 0 01-.075-.178.697.697 0 01.098-.574c.032-.045.07-.083.146-.16.233-.232.35-.349.426-.466a1.333 1.333 0 000-1.453c-.077-.118-.193-.234-.426-.467l-.13-.13c-.354-.354-.531-.532-.722-.628a1.333 1.333 0 00-1.203 0c-.19.096-.368.274-.722.628l-.105.105c-.353.353-.53.53-.665.77-.15.266-.257.68-.256.985.001.275.054.463.161.84a12.692 12.692 0 003.25 5.522 12.691 12.691 0 005.522 3.25c.376.106.564.16.84.16.305.001.719-.106.985-.256.24-.135.416-.311.77-.665l.105-.105c.354-.354.531-.531.627-.721a1.334 1.334 0 000-1.204c-.096-.19-.273-.367-.627-.721l-.13-.13c-.233-.233-.35-.35-.467-.426a1.333 1.333 0 00-1.454 0c-.117.076-.233.193-.467.425a1.346 1.346 0 01-.158.147.697.697 0 01-.575.098 1.12 1.12 0 01-.177-.075 9.735 9.735 0 01-2.674-1.898z"
                      stroke-width="1.5" stroke-linecap="round" stroke-linejoin="round"/>
            </g>
            <defs>
                <clipPath id="clip0_741_22889">
                    <path fill="#fff" d="M0 0h16v16H0z"/>
                </clipPath>
            </defs>
        </symbol>
        <symbol id="chart-mini">
            <path d="M6 8H3.067c-.374 0-.56 0-.703.073a.667.667 0 00-.291.291C2 8.507 2 8.694 2 9.067v3.866c0 .374 0 .56.073.703a.667.667 0 00.291.291c.143.073.33.073.703.073H6m0 0h4m-4 0V5.733c0-.373 0-.56.073-.702a.667.667 0 01.291-.292c.143-.072.33-.072.703-.072h1.866c.374 0 .56 0 .703.072a.667.667 0 01.291.292c.073.142.073.329.073.702V14m0 0h2.933c.374 0 .56 0 .703-.073a.667.667 0 00.291-.291c.073-.143.073-.33.073-.703V3.067c0-.374 0-.56-.073-.703a.667.667 0 00-.291-.291C13.493 2 13.306 2 12.933 2h-1.866c-.374 0-.56 0-.703.073a.667.667 0 00-.291.291c-.073.143-.073.33-.073.703v2.266"
                  stroke-width="1.5" stroke-linecap="round" stroke-linejoin="round"/>
        </symbol>
        <symbol id="puzzle-mini">
            <g clip-path="url(#clip0_738_25323)">
                <path d="M4.999 3a1.667 1.667 0 113.333 0v1h.667c.932 0 1.397 0 1.765.152a2 2 0 011.083 1.083c.152.367.152.833.152 1.765h1a1.667 1.667 0 110 3.333h-1v1.134c0 1.12 0 1.68-.218 2.108a2 2 0 01-.874.874c-.428.218-.988.218-2.108.218h-.467V13.5a1.5 1.5 0 00-3 0v1.167h-.8c-1.12 0-1.68 0-2.108-.218a2 2 0 01-.874-.874c-.218-.428-.218-.988-.218-2.108v-1.134h1a1.667 1.667 0 000-3.333h-1c0-.932 0-1.398.152-1.765a2 2 0 011.083-1.083C2.934 4 3.4 4 4.332 4h.667V3z"
                      stroke-width="1.5" stroke-linecap="round" stroke-linejoin="round"/>
            </g>
            <defs>
                <clipPath id="clip0_738_25323">
                    <path fill="#fff" d="M0 0h16v16H0z"/>
                </clipPath>
            </defs>
        </symbol>
        <symbol id="user-mini">
            <path d="M2 13.333c1.557-1.651 3.671-2.666 6-2.666s4.443 1.015 6 2.666M11 5a3 3 0 11-6 0 3 3 0 016 0z"
                  stroke-width="1.5" stroke-linecap="round" stroke-linejoin="round"/>
        </symbol>
        <symbol id="settings">
            <path d="M9.397 19.371l.584 1.315a2.212 2.212 0 004.045 0l.584-1.315a2.426 2.426 0 012.47-1.423l1.43.152a2.212 2.212 0 002.023-3.502l-.847-1.164a2.428 2.428 0 01-.46-1.434c0-.513.162-1.014.464-1.429l.847-1.163a2.211 2.211 0 00-2.022-3.502l-1.43.152a2.433 2.433 0 01-1.47-.312 2.425 2.425 0 01-1-1.117l-.59-1.315a2.213 2.213 0 00-4.044 0L9.397 4.63c-.207.468-.557.86-1 1.117-.445.256-.96.365-1.47.312l-1.434-.152A2.212 2.212 0 003.47 9.408l.847 1.163a2.43 2.43 0 010 2.858l-.847 1.163a2.21 2.21 0 00.786 3.273c.381.195.81.274 1.237.23l1.43-.153a2.434 2.434 0 012.474 1.43z"
                  stroke-width="2" stroke-linecap="round" stroke-linejoin="round"/>
            <path d="M12.002 15a3 3 0 100-6 3 3 0 000 6z" stroke-width="2" stroke-linecap="round"
                  stroke-linejoin="round"/>
        </symbol>
        <symbol id="bell-mini">
            <path d="M6.238 14c.47.415 1.088.667 1.764.667.676 0 1.294-.252 1.764-.667m2.236-8.667a4 4 0 10-8 0c0 2.06-.52 3.47-1.1 4.404-.49.787-.735 1.18-.726 1.29.01.122.036.168.134.24.088.066.487.066 1.284.066h8.815c.798 0 1.196 0 1.285-.065.098-.073.124-.12.134-.24.009-.11-.236-.504-.726-1.291-.58-.933-1.1-2.344-1.1-4.404z"
                  stroke-width="1.5" stroke-linecap="round" stroke-linejoin="round"/>
        </symbol>
        <symbol id="calendar-mini">
            <path d="M14 6.667H2m8.667-5.334V4M5.333 1.333V4M5.2 14.667h5.6c1.12 0 1.68 0 2.108-.218a2 2 0 00.874-.874c.218-.428.218-.988.218-2.108v-5.6c0-1.12 0-1.68-.218-2.108a2 2 0 00-.874-.874c-.428-.218-.988-.218-2.108-.218H5.2c-1.12 0-1.68 0-2.108.218a2 2 0 00-.874.874C2 4.186 2 4.746 2 5.867v5.6c0 1.12 0 1.68.218 2.108a2 2 0 00.874.874c.428.218.988.218 2.108.218z"
                  stroke-width="1.5" stroke-linecap="round" stroke-linejoin="round"/>
        </symbol>
        <symbol id="file-shield-mini">
            <path d="M13.335 6.667V4.533c0-1.12 0-1.68-.218-2.108a2 2 0 00-.874-.874c-.428-.218-.988-.218-2.108-.218H5.868c-1.12 0-1.68 0-2.108.218a2 2 0 00-.874.874c-.218.428-.218.988-.218 2.108v6.934c0 1.12 0 1.68.218 2.108a2 2 0 00.874.874c.428.218.988.218 2.108.218h2.467M12 14s2-.953 2-2.383V9.949l-1.458-.522a1.607 1.607 0 00-1.084 0L10 9.95v1.668c0 1.43 2 2.383 2 2.383z"
                  stroke-width="1.5" stroke-linecap="round" stroke-linejoin="round"/>
        </symbol>
        <symbol id="fingerprint-mini">
            <path d="M3.871 12.354l.037-.06a9.277 9.277 0 001.425-4.96 2.667 2.667 0 015.334 0c0 .677-.047 1.345-.136 2M9.12 13.895c.408-.814.743-1.671.995-2.563m2.56.755c.43-1.51.66-3.106.66-4.755a5.333 5.333 0 00-8-4.62M2 10.244a6.64 6.64 0 00.667-2.91c0-.971.26-1.882.713-2.666M8 7.333c0 2.345-.673 4.533-1.835 6.381"
                  stroke-width="1.5" stroke-linecap="round" stroke-linejoin="round"/>
        </symbol>
        <symbol id="container-mini">
            <path d="M13.667 4.852L8 8m0 0L2.333 4.852M8 8v6.333m6-3.627V5.294c0-.228 0-.342-.034-.444a.666.666 0 00-.142-.243c-.073-.079-.173-.134-.373-.245L8.518 1.62c-.189-.105-.284-.158-.384-.178a.666.666 0 00-.268 0c-.1.02-.195.073-.384.178L2.549 4.36c-.2.112-.3.167-.373.246a.667.667 0 00-.142.243C2 4.952 2 5.066 2 5.294v5.412c0 .228 0 .342.034.444.03.09.078.173.142.243.073.079.173.134.373.245l4.933 2.74c.189.106.284.158.384.179.088.018.18.018.268 0 .1-.02.195-.073.384-.178l4.933-2.741c.2-.11.3-.166.373-.245a.666.666 0 00.142-.243c.034-.102.034-.216.034-.444zm-3-4.373L5 3"
                  stroke-width="1.5" stroke-linecap="round" stroke-linejoin="round"/>
        </symbol>
        <symbol id="layout-mini">
            <path d="M8 8h6M8 2v12M5.2 2h5.6c1.12 0 1.68 0 2.108.218a2 2 0 01.874.874C14 3.52 14 4.08 14 5.2v5.6c0 1.12 0 1.68-.218 2.108a2 2 0 01-.874.874C12.48 14 11.92 14 10.8 14H5.2c-1.12 0-1.68 0-2.108-.218a2 2 0 01-.874-.874C2 12.48 2 11.92 2 10.8V5.2c0-1.12 0-1.68.218-2.108a2 2 0 01.874-.874C3.52 2 4.08 2 5.2 2z"
                  stroke-width="1.5" stroke-linecap="round" stroke-linejoin="round"/>
        </symbol>
        <symbol id="home">
            <path d="M9 21v-7.4c0-.56 0-.84.109-1.054a1 1 0 01.437-.437C9.76 12 10.04 12 10.6 12h2.8c.56 0 .84 0 1.054.11a1 1 0 01.437.436C15 12.76 15 13.04 15 13.6V21M11.018 2.764L4.235 8.04c-.453.353-.68.53-.843.75a2 2 0 00-.318.65C3 9.704 3 9.991 3 10.565V17.8c0 1.12 0 1.68.218 2.108a2 2 0 00.874.874C4.52 21 5.08 21 6.2 21h11.6c1.12 0 1.68 0 2.108-.218a2 2 0 00.874-.874C21 19.48 21 18.92 21 17.8v-7.235c0-.574 0-.861-.074-1.126a2.002 2.002 0 00-.318-.65c-.163-.22-.39-.397-.843-.75l-6.783-5.275c-.351-.273-.527-.41-.72-.462a1 1 0 00-.523 0c-.194.052-.37.189-.721.462z"
                  stroke-width="2" stroke-linecap="round" stroke-linejoin="round"/>
        </symbol>
        <symbol id="arrow">
            <path fill-rule="evenodd" clip-rule="evenodd"
                  d="M10.707 5.293a1 1 0 010 1.414L6.414 11H20a1 1 0 110 2H6.414l4.293 4.293a1 1 0 01-1.414 1.414l-6-6a1 1 0 010-1.414l6-6a1 1 0 011.414 0z"/>
        </symbol>
        <symbol id="planet">
            <path d="M2 12h20M2 12c0 5.523 4.477 10 10 10M2 12C2 6.477 6.477 2 12 2m10 10c0 5.523-4.477 10-10 10m10-10c0-5.523-4.477-10-10-10m0 0a15.3 15.3 0 014 10 15.3 15.3 0 01-4 10m0-20a15.3 15.3 0 00-4 10 15.3 15.3 0 004 10"
                  stroke-width="2" stroke-linecap="round" stroke-linejoin="round"/>
        </symbol>
        <symbol id="planet">
            <path d="M2 12h20M2 12c0 5.523 4.477 10 10 10M2 12C2 6.477 6.477 2 12 2m10 10c0 5.523-4.477 10-10 10m10-10c0-5.523-4.477-10-10-10m0 0a15.3 15.3 0 014 10 15.3 15.3 0 01-4 10m0-20a15.3 15.3 0 00-4 10 15.3 15.3 0 004 10"
                  stroke-width="2" stroke-linecap="round" stroke-linejoin="round"/>
        </symbol>
        <symbol id="exit">
            <path d="M16 17l5-5m0 0l-5-5m5 5H9m0-9H7.8c-1.68 0-2.52 0-3.162.327a3 3 0 00-1.311 1.311C3 5.28 3 6.12 3 7.8v8.4c0 1.68 0 2.52.327 3.162a3 3 0 001.311 1.311C5.28 21 6.12 21 7.8 21H9"
                  stroke-width="2" stroke-linecap="round" stroke-linejoin="round"/>
        </symbol>
        <symbol id="close">
            <path fill-rule="evenodd" clip-rule="evenodd"
                  d="M5.293 5.293a1 1 0 011.414 0L12 10.586l5.293-5.293a1 1 0 111.414 1.414L13.414 12l5.293 5.293a1 1 0 01-1.414 1.414L12 13.414l-5.293 5.293a1 1 0 01-1.414-1.414L10.586 12 5.293 6.707a1 1 0 010-1.414z"/>
        </symbol>
        <symbol id="copy">
            <path d="M8 8V5.2c0-1.12 0-1.68.218-2.108a2 2 0 01.874-.874C9.52 2 10.08 2 11.2 2h7.6c1.12 0 1.68 0 2.108.218a2 2 0 01.874.874C22 3.52 22 4.08 22 5.2v7.6c0 1.12 0 1.68-.218 2.108a2 2 0 01-.874.874C20.48 16 19.92 16 18.8 16H16M5.2 22h7.6c1.12 0 1.68 0 2.108-.218a2 2 0 00.874-.874C16 20.48 16 19.92 16 18.8v-7.6c0-1.12 0-1.68-.218-2.108a2 2 0 00-.874-.874C14.48 8 13.92 8 12.8 8H5.2c-1.12 0-1.68 0-2.108.218a2 2 0 00-.874.874C2 9.52 2 10.08 2 11.2v7.6c0 1.12 0 1.68.218 2.108a2 2 0 00.874.874C3.52 22 4.08 22 5.2 22z"
                  stroke-width="2" stroke-linecap="round" stroke-linejoin="round"/>
        </symbol>
        <symbol id="plus">
            <path fill-rule="evenodd" clip-rule="evenodd"
                  d="M2.516 12a1 1 0 011-1H11V3.515a1 1 0 112 0V11h7.485a1 1 0 110 2H13v7.485a1 1 0 01-2 0V13H3.516a1 1 0 01-1-1z"/>
        </symbol>
        <symbol id="chevron-mini">
            <path fill-rule="evenodd" clip-rule="evenodd"
                  d="M10.293 15.707a1 1 0 010-1.414L12.586 12l-2.293-2.293a1 1 0 111.414-1.414l3 3a1 1 0 010 1.414l-3 3a1 1 0 01-1.414 0z"/>
        </symbol>
        <symbol id="good">
            <path d="M5 12l5 5 9-9" stroke-width="2" stroke-linecap="round" stroke-linejoin="round"/>
        </symbol>
        <symbol id="upload">
            <path d="M21 15v1.2c0 1.68 0 2.52-.327 3.162a3 3 0 01-1.311 1.311C18.72 21 17.88 21 16.2 21H7.8c-1.68 0-2.52 0-3.162-.327a3 3 0 01-1.311-1.311C3 18.72 3 17.88 3 16.2V15m14-7l-5-5m0 0L7 8m5-5v12"
                  stroke-width="2" stroke-linecap="round" stroke-linejoin="round"/>
        </symbol>
        <symbol id="mobile-menu">
            <path d="M12 13a1 1 0 100-2 1 1 0 000 2zm0-7a1 1 0 100-2 1 1 0 000 2zm0 14a1 1 0 100-2 1 1 0 000 2z"
                  stroke-width="2" stroke-linecap="round" stroke-linejoin="round"/>
        </symbol>
        <symbol id="user">
            <path d="M3 20c2.336-2.477 5.507-4 9-4 3.493 0 6.664 1.523 9 4M16.5 7.5a4.5 4.5 0 11-9 0 4.5 4.5 0 019 0z"
                  stroke-width="2" stroke-linecap="round" stroke-linejoin="round"/>
        </symbol>
        <symbol id="close-mini">
            <path fill-rule="evenodd" clip-rule="evenodd"
                  d="M3.53 3.529c.26-.26.682-.26.942 0l3.529 3.528 3.528-3.528a.667.667 0 01.943.942L8.943 8l3.53 3.528a.667.667 0 01-.944.943L8.001 8.943 4.472 12.47a.667.667 0 11-.943-.943L7.058 8 3.529 4.47a.667.667 0 010-.942z"/>
        </symbol>
        <symbol id="folder">
            <path d="M13 7l-1.116-2.231c-.32-.642-.481-.963-.72-1.198a2 2 0 00-.748-.462C10.1 3 9.74 3 9.022 3H5.2c-1.12 0-1.68 0-2.108.218a2 2 0 00-.874.874C2 4.52 2 5.08 2 6.2V7m0 0h15.2c1.68 0 2.52 0 3.162.327a3 3 0 011.311 1.311C22 9.28 22 10.12 22 11.8v4.4c0 1.68 0 2.52-.327 3.162a3 3 0 01-1.311 1.311C19.72 21 18.88 21 17.2 21H6.8c-1.68 0-2.52 0-3.162-.327a3 3 0 01-1.311-1.311C2 18.72 2 17.88 2 16.2V7z"
                  stroke-width="2" stroke-linecap="round" stroke-linejoin="round"/>
        </symbol>
        <symbol id="grid">
            <path d="M12 6a1 1 0 100-2 1 1 0 000 2zm0 7a1 1 0 100-2 1 1 0 000 2zm0 7a1 1 0 100-2 1 1 0 000 2zm7-14a1 1 0 100-2 1 1 0 000 2zm0 7a1 1 0 100-2 1 1 0 000 2zm0 7a1 1 0 100-2 1 1 0 000 2zM5 6a1 1 0 100-2 1 1 0 000 2zm0 7a1 1 0 100-2 1 1 0 000 2zm0 7a1 1 0 100-2 1 1 0 000 2z"
                  stroke-width="2" stroke-linecap="round" stroke-linejoin="round"/>
        </symbol>
        <symbol id="settings">
            <path d="M3 8h12m0 0a3 3 0 106 0 3 3 0 00-6 0zm-6 8h12M9 16a3 3 0 11-6 0 3 3 0 016 0z" stroke-width="2"
                  stroke-linecap="round" stroke-linejoin="round"/>
        </symbol>
        <symbol id="clock">
            <path d="M12 6v6l4 2m6-2c0 5.523-4.477 10-10 10S2 17.523 2 12 6.477 2 12 2s10 4.477 10 10z" stroke-width="2"
                  stroke-linecap="round" stroke-linejoin="round"/>
        </symbol>
        <symbol id="main">
            <path d="M13.744 2.633l7.528 4.894c.266.173.399.259.495.374a1 1 0 01.189.348c.044.143.044.302.044.62v7.33c0 1.681 0 2.521-.327 3.163a3 3 0 01-1.311 1.31C19.72 21 18.88 21 17.2 21H6.8c-1.68 0-2.52 0-3.162-.327a3 3 0 01-1.311-1.311C2 18.72 2 17.88 2 16.2V8.868c0-.317 0-.476.044-.62a1 1 0 01.189-.347c.096-.115.229-.201.495-.374l7.528-4.894m3.488 0c-.631-.41-.947-.615-1.287-.695a2 2 0 00-.914 0c-.34.08-.656.285-1.287.695m3.488 0l7.224 4.696c.344.224.516.335.576.477a.5.5 0 010 .388c-.06.141-.232.253-.576.477l-7.224 4.695c-.631.41-.947.616-1.287.696-.3.07-.613.07-.914 0-.34-.08-.656-.285-1.287-.696L3.032 8.671c-.344-.224-.516-.336-.576-.477a.5.5 0 010-.388c.06-.142.232-.253.576-.477l7.224-4.696"
                  stroke-width="2" stroke-linecap="round" stroke-linejoin="round"/>
        </symbol>
        <symbol id="download">
            <path d="M21 15v1.2c0 1.68 0 2.52-.327 3.162a3 3 0 01-1.311 1.311C18.72 21 17.88 21 16.2 21H7.8c-1.68 0-2.52 0-3.162-.327a3 3 0 01-1.311-1.311C3 18.72 3 17.88 3 16.2V15m14-5l-5 5m0 0l-5-5m5 5V3"
                  stroke-width="2" stroke-linecap="round" stroke-linejoin="round"/>
        </symbol>
        <symbol id="point">
            <circle cx="12" cy="12" r="3"/>
        </symbol>
        <symbol id="file">
            <path d="M21.154 10.9l-9.016 9.015a5.25 5.25 0 01-7.425-7.425l9.016-9.015a3.5 3.5 0 114.95 4.95l-8.662 8.662a1.75 1.75 0 11-2.475-2.475l7.601-7.602"
                  stroke-width="2" stroke-linecap="round" stroke-linejoin="round"/>
        </symbol>
        <symbol id="eye">
            <path d="M2.42 12.713c-.136-.215-.204-.323-.242-.49a1.173 1.173 0 010-.446c.038-.167.106-.274.242-.49C3.546 9.505 6.895 5 12 5s8.455 4.505 9.58 6.287c.137.215.205.323.243.49.029.125.029.322 0 .446-.038.167-.106.274-.242.49C20.455 14.495 17.105 19 12 19c-5.106 0-8.455-4.505-9.58-6.287z"
                  stroke-width="2" stroke-linecap="round" stroke-linejoin="round"/>
            <path d="M12 15a3 3 0 100-6 3 3 0 000 6z" stroke-width="2" stroke-linecap="round" stroke-linejoin="round"/>
        </symbol>
        <symbol id="play">
            <path d="M2.42 12.713c-.136-.215-.204-.323-.242-.49a1.173 1.173 0 010-.446c.038-.167.106-.274.242-.49C3.546 9.505 6.895 5 12 5s8.455 4.505 9.58 6.287c.137.215.205.323.243.49.029.125.029.322 0 .446-.038.167-.106.274-.242.49C20.455 14.495 17.105 19 12 19c-5.106 0-8.455-4.505-9.58-6.287z"
                  stroke-width="2" stroke-linecap="round" stroke-linejoin="round"/>
            <path d="M12 15a3 3 0 100-6 3 3 0 000 6z" stroke-width="2" stroke-linecap="round" stroke-linejoin="round"/>
        </symbol>
        <symbol id="plus-mini">
            <rect x="4" width="2" height="10" rx="1"/>
            <rect y="6" width="2" height="10" rx="1" transform="rotate(-90 0 6)"/>
        </symbol>
        <symbol id="minus-mini">
            <rect y="6" width="2" height="10" rx="1" transform="rotate(-90 0 6)"/>
        </symbol>
        <symbol id="chevron-big">
            <path d="M6 10l6 6 6-6" stroke-width="2" stroke-linecap="round" stroke-linejoin="round"/>
        </symbol>
    </defs>
</svg>