<svg width="147" height="32" fill="none" xmlns="http://www.w3.org/2000/svg"><path d="M123.564 15.326c-.316.003-.593.079-.853.098-2.783.677-5.275 1.803-7.333 3.75-.407.39-.857.68-1.394.775-1.1.194-1.923-.584-1.796-1.662.023-.321.101-.625.235-.913.484-1.3 1.083-2.54 1.91-3.69.806-1.118 1.547-2.305 2.357-3.398a16.792 16.792 0 014.307-4.008c.997-.625 1.97-1.246 3.041-1.752a11.39 11.39 0 012.184-.782c.861-.204 1.662-.003 2.379.478.597.396.572.4.887-.21.18-.322.335-.64.581-.894.215-.276.491-.51.81-.645.484-.244.963-.223 1.393.123.43.347.562.798.464 1.29-.031.27-.135.58-.283.79a214.72 214.72 0 01-2.123 2.777c-.156.16-.343.298-.534.411-.672.383-1.362.056-1.518-.682-.036-.205-.047-.414-.083-.619a7.736 7.736 0 00-.084-.777c-.076-.435-.356-.676-.771-.787a2.064 2.064 0 00-1.255.063c-1.653.503-3.084 1.363-4.329 2.533-1.521 1.404-2.645 3.107-3.59 4.937-.176.348-.348.721-.524 1.07-.033.11-.078.303-.009.397.108.165.274.057.418-.021.273-.101.541-.228.808-.354 2.344-1.074 4.776-1.794 7.309-2.242.716-.126 1.455-.125 2.136.15a3.148 3.148 0 011.64 1.374c.529.91.193 1.998-.751 2.482-.407.23-.868.312-1.316.312-1.132.015-2.239-.133-3.347-.28-.325-.048-.65-.097-.966-.094z" fill="#0D0D0D"/><path d="M134.738 9.789c.015.235.319.313.471.128.185-.297.4-.572.616-.848.126-.18.257-.336.409-.521.748-.845 2.128-.798 2.795.14.212.305.321.629.41.983a5.594 5.594 0 01-.099 2.736 6.161 6.161 0 01-.923 1.8c-.237.305-.503.59-.869.76-.464.214-.916.189-1.338-.107-.395-.3-.523-.725-.476-1.209.039-.376.22-.698.431-1 .29-.447.611-.873.932-1.3.232-.33.433-.683.519-1.094.037-.244.073-.488.053-.749-.042-.388-.333-.548-.725-.373-.387.2-.739.447-.992.809-.299.396-.564.839-.83 1.281-.164.267-.293.58-.427.868a1.229 1.229 0 01-.211.301c-.089.095-.217.117-.358.063-.112-.033-.185-.152-.182-.284l.072-.488c.16-.741.034-1.458-.118-2.17-.004-.026-.034-.047-.034-.047-.083-.17-.322-.18-.402-.034-.042.06-.059.116-.101.176-.398.888-.577 1.817-.431 2.795.073.568.219 1.096.313 1.634a4.1 4.1 0 01.165.789c.015.235.009.5-.083.727-.232.78-1.109 1.04-1.754.521-.241-.168-.388-.406-.515-.674a3.504 3.504 0 01-.323-1.685c.106-1.049.208-2.122.45-3.142.14-.552.311-1.084.597-1.557.185-.297.4-.572.62-.822.194-.246.488-.377.786-.482.677-.199 1.231.1 1.429.777.08.302.083.619.111.93.018.103.015.235.012.368zm7.517-2.173c-.163-.024-.36-.095-.431.103-.092.227.093.379.248.51.22.199.435.372.65.545l2.297 1.811c.12.085.245.195.349.335.268.322.212.754-.128.92a2.246 2.246 0 01-.405.098c-.977.146-1.892.492-2.651 1.128-.14.104-.249.229-.398.282-.222.091-.438.209-.648.22-.439.05-.838-.116-1.098-.545a1.325 1.325 0 01-.081-1.359c.135-.287.338-.482.576-.63.386-.2.812-.328 1.256-.353.316-.003.607-.002.923-.005.183-.006.367-.012.683-.015-.169-.208-.925-.76-1.247-.941-.271-.19-.567-.375-.838-.565a3.244 3.244 0 01-.851-1.09c-.257-.562-.245-1.092.041-1.565.122-.206.279-.366.461-.53.886-.658 1.887-.967 3.034-.747.274.057.556.166.814.279.231.117.421.295.594.528.32.471.347 1.074.047 1.47a1.089 1.089 0 01-.837.49c-.358.064-.76.03-1.145-.06-.415-.112-.805-.228-1.215-.314z" fill="#0D0D0D"/><path d="M13.306 14.44c-.09-.912-.479-1.621-1.165-2.126-.685-.506-1.616-.758-2.792-.758-.799 0-1.473.113-2.023.34-.55.218-.973.523-1.267.915-.286.392-.43.837-.43 1.335-.014.415.072.777.26 1.086.197.309.464.577.803.803.34.218.731.41 1.176.577.445.158.92.294 1.425.407l2.08.497c1.01.227 1.937.528 2.78.905a8.448 8.448 0 012.194 1.391 5.783 5.783 0 011.435 1.946c.347.746.524 1.602.532 2.567-.008 1.418-.37 2.647-1.085 3.688-.709 1.032-1.734 1.835-3.075 2.409-1.334.565-2.943.848-4.828.848-1.869 0-3.496-.287-4.883-.86-1.38-.573-2.457-1.421-3.233-2.545C.44 26.735.038 25.335 0 23.67h4.737c.052.777.275 1.425.667 1.946.4.512.93.9 1.594 1.165.67.256 1.428.384 2.272.384.829 0 1.549-.12 2.16-.362.617-.241 1.096-.577 1.435-1.006.339-.43.509-.924.509-1.482 0-.52-.155-.958-.464-1.312-.301-.354-.746-.656-1.334-.905-.58-.249-1.292-.475-2.136-.678l-2.521-.634c-1.952-.475-3.494-1.218-4.624-2.228-1.13-1.01-1.692-2.371-1.685-4.083-.007-1.403.366-2.628 1.12-3.676.76-1.048 1.805-1.866 3.131-2.454 1.327-.588 2.834-.883 4.522-.883 1.718 0 3.218.295 4.5.883 1.288.588 2.29 1.406 3.006 2.454.716 1.048 1.086 2.262 1.108 3.642h-4.691zm7.414 16.502V13.569h4.816v17.373H20.72zm2.42-19.612c-.717 0-1.33-.238-1.843-.713-.505-.483-.758-1.06-.758-1.73 0-.664.253-1.233.758-1.708a2.593 2.593 0 011.842-.724c.716 0 1.327.241 1.832.724.512.475.768 1.044.768 1.708 0 .67-.256 1.247-.768 1.73-.505.475-1.116.713-1.832.713zm5.458 19.612V13.569h4.59v3.065h.203c.362-1.018.965-1.82 1.809-2.409.844-.588 1.854-.882 3.03-.882 1.19 0 2.204.298 3.04.893.837.588 1.395 1.388 1.674 2.398h.18c.355-.995.995-1.79 1.922-2.386.935-.603 2.039-.905 3.313-.905 1.62 0 2.935.516 3.945 1.55 1.017 1.025 1.526 2.48 1.526 4.365v11.684h-4.804V20.208c0-.965-.257-1.689-.77-2.171-.512-.483-1.152-.724-1.92-.724-.875 0-1.557.279-2.047.837-.49.55-.735 1.278-.735 2.183v10.609h-4.669V20.107c0-.853-.245-1.531-.735-2.036-.482-.506-1.119-.758-1.91-.758-.535 0-1.018.136-1.447.407a2.796 2.796 0 00-1.006 1.12c-.249.475-.373 1.033-.373 1.674v10.428h-4.816zM66.176 13.57v3.618H55.46V13.57h10.717zm-8.264 17.372V12.314c0-1.26.245-2.304.735-3.133a4.722 4.722 0 012.035-1.867c.86-.414 1.835-.622 2.928-.622.739 0 1.413.057 2.024.17.618.113 1.077.215 1.379.305l-.86 3.62a6.008 6.008 0 00-.7-.17 4.37 4.37 0 00-.837-.08c-.708 0-1.202.167-1.48.499-.28.324-.42.78-.42 1.368v18.538h-4.804zM73.138 7.778v23.164h-4.816V7.778h4.816zM84.02 31.281c-1.786 0-3.324-.362-4.612-1.086a7.435 7.435 0 01-2.962-3.099c-.694-1.342-1.04-2.93-1.04-4.761 0-1.787.346-3.356 1.04-4.706.693-1.35 1.669-2.401 2.928-3.155 1.266-.754 2.75-1.131 4.454-1.131 1.145 0 2.212.185 3.199.554a7.097 7.097 0 012.6 1.64c.746.731 1.327 1.651 1.741 2.76.415 1.1.622 2.39.622 3.868v1.323H77.328v-2.986h10.129c0-.693-.151-1.308-.453-1.843a3.24 3.24 0 00-1.254-1.256c-.528-.309-1.142-.463-1.843-.463-.731 0-1.38.17-1.944.509-.558.331-.995.78-1.312 1.345a3.802 3.802 0 00-.486 1.867V23.5c0 .86.158 1.602.475 2.228a3.47 3.47 0 001.368 1.447c.588.34 1.285.51 2.091.51.535 0 1.025-.076 1.47-.227.444-.15.825-.377 1.141-.678a2.95 2.95 0 00.724-1.109l4.454.294a6.087 6.087 0 01-1.39 2.805c-.694.792-1.59 1.41-2.69 1.855-1.094.438-2.356.656-3.788.656zM97.208 13.57l3.188 6.073 3.267-6.074h4.94l-5.031 8.687 5.167 8.686h-4.918l-3.425-6.006-3.37 6.006h-4.973l5.155-8.686-4.974-8.687h4.974z" fill="#1975F7"/></svg>