<svg width="32" height="32" fill="none" xmlns="http://www.w3.org/2000/svg"><g clip-path="url(#clip0_25_20658)"><rect width="32" height="32" rx="8" fill="#0D0D0D"/><path d="M16.785 21.6c-6.013 0-9.443-4.204-9.586-11.2h3.012c.1 5.135 2.32 7.31 4.079 7.758V10.4h2.836v4.428c1.737-.19 3.562-2.208 4.177-4.428h2.837a8.63 8.63 0 01-1.359 3.202 8.444 8.444 0 01-2.5 2.381 8.714 8.714 0 012.85 2.314 8.92 8.92 0 011.668 3.303h-3.122a5.552 5.552 0 00-1.683-2.702 5.38 5.38 0 00-2.868-1.3V21.6h-.34z" fill="#fff"/></g><defs><clipPath id="clip0_25_20658"><rect width="32" height="32" rx="8" fill="#fff"/></clipPath></defs></svg>