<svg width="48" height="48" fill="none" xmlns="http://www.w3.org/2000/svg"><g clip-path="url(#clip0_318_29173)"><rect width="48" height="48" rx="8" fill="#0D0D0D"/><path d="M25.18 32.4c-9.02 0-14.165-6.306-14.38-16.8h4.519c.148 7.702 3.48 10.964 6.118 11.637V15.6h4.254v6.643c2.605-.286 5.343-3.313 6.266-6.643h4.254a12.946 12.946 0 01-2.037 4.803 12.667 12.667 0 01-3.75 3.572 13.078 13.078 0 014.274 3.471 13.382 13.382 0 012.503 4.954h-4.683a8.327 8.327 0 00-2.525-4.053 8.07 8.07 0 00-4.302-1.95V32.4h-.511z" fill="#fff"/></g><defs><clipPath id="clip0_318_29173"><rect width="48" height="48" rx="8" fill="#fff"/></clipPath></defs></svg>