<svg width="32" height="32" fill="none" xmlns="http://www.w3.org/2000/svg"><g clip-path="url(#clip0_25_20684)"><rect width="32" height="32" rx="8" fill="#0D0D0D"/><path d="M22.341 9.65A8.343 8.343 0 0016.43 7.2c-4.624 0-8.37 3.733-8.37 8.342 0 1.458.41 2.916 1.112 4.141L8 24l4.449-1.167a8.558 8.558 0 003.98.992c4.625 0 8.371-3.733 8.371-8.342-.059-2.158-.878-4.258-2.459-5.833zm-1.873 8.867c-.175.466-.995.933-1.405.991-.35.059-.82.059-1.287-.058-.293-.117-.703-.233-1.171-.467-2.107-.875-3.454-2.975-3.57-3.15-.118-.116-.879-1.108-.879-2.158 0-1.05.527-1.517.702-1.75.176-.233.41-.233.586-.233h.41c.117 0 .292-.059.468.35.176.408.585 1.458.644 1.516a.37.37 0 010 .35c-.059.117-.117.234-.234.35-.117.117-.234.292-.293.35-.117.117-.234.234-.117.409.117.233.527.875 1.17 1.458.82.7 1.464.933 1.698 1.05.234.117.351.058.468-.058.118-.117.527-.584.644-.817.117-.233.293-.175.469-.117.175.059 1.229.584 1.405.7.234.117.35.175.41.234.058.175.058.583-.118 1.05z" fill="#fff"/></g><defs><clipPath id="clip0_25_20684"><rect width="32" height="32" rx="8" fill="#fff"/></clipPath></defs></svg>